<?xml version="1.0" encoding="iso-8859-1"?>
<!-- Generator: Adobe Illustrator 19.0.0, SVG Export Plug-In . SVG Version: 6.00 Build 0)  -->
<svg version="1.1" id="Capa_1" xmlns="http://www.w3.org/2000/svg" xmlns:xlink="http://www.w3.org/1999/xlink" x="0px" y="0px"
	 viewBox="0 0 323.48 323.48" style="enable-background:new 0 0 323.48 323.48;" xml:space="preserve">
<g>
	<g>
		<g>
			<path d="M306.254,270.631c-31.304-0.378-61.723-10.439-87.08-28.8c-50.055-36.106-68.593-101.966-44.72-158.88
				c12.077-28.884,32.799-53.323,59.32-69.96c1.265-0.764,2.145-2.03,2.42-3.482c0.535-2.822-1.319-5.543-4.14-6.078
				c-25.477-5.34-51.869-4.435-76.92,2.64l-0.04-0.04c-24.989,7.046-47.914,20.004-66.839,37.778
				c-65.12,61.16-68.331,163.53-7.171,228.651c61.16,65.12,163.53,68.331,228.651,7.171c1.035-0.967,1.632-2.315,1.65-3.731
				C311.423,273.028,309.126,270.669,306.254,270.631z M273.454,293.591c-21.098,11.894-44.743,18.551-68.947,19.41
				c-83.519,2.964-153.628-62.339-156.591-145.858S110.255,13.514,193.774,10.551c7.895-0.275,15.8,0.073,23.64,1.04
				c-23.211,17.345-41.313,40.629-52.4,67.4c-25.782,61.321-5.89,132.322,48,171.32c23.472,17.047,51.111,27.44,80,30.08
				C286.851,285.298,280.311,289.712,273.454,293.591z"/>
			<path d="M227.054,161.551l-0.4,0.28c-3.881,2.646-5.597,7.503-4.24,12l3.76,13.24l-7,11.76c-0.008,0.013-0.016,0.026-0.023,0.039
				c-3.009,5.099-1.315,11.671,3.783,14.681c1.646,0.977,3.526,1.489,5.44,1.48l13.4,0.48l9.04,10.32
				c0.031,0.035,0.062,0.069,0.094,0.104c4.001,4.364,10.782,4.658,15.146,0.656c0.68-0.59,1.285-1.261,1.8-2
				c0.51-0.732,0.926-1.525,1.24-2.36l4.68-12.68l12.44-5.44c0.933-0.406,1.804-0.942,2.587-1.592
				c4.59-3.809,5.222-10.618,1.413-15.208c-0.649-0.768-1.404-1.441-2.24-2l-10.2-8l-1.16-13.56
				c-0.153-1.863-0.788-3.653-1.844-5.196c-3.356-4.904-10.052-6.16-14.956-2.804l-11.32,7.64l-13.44-3.24
				C232.307,159.554,229.435,160.057,227.054,161.551z M252.454,173.311l13.2-8.88l0.12-0.16h0.28h0.24
				c0.031,0.077,0.031,0.163,0,0.24l1.48,16c0.132,1.438,0.857,2.757,2,3.64l12,9.36l-0.04,0.24c0.038,0.089,0.038,0.19,0,0.28
				l-14.68,6.32c-1.32,0.565-2.348,1.651-2.84,3l-5.36,14.68v0.28h-0.24h-0.2l-10.52-12c-0.955-1.083-2.317-1.721-3.76-1.76
				l-15.68-0.56h-0.44c-0.038-0.09-0.038-0.19,0-0.28l8-13.28c0.953-1.301,1.249-2.971,0.8-4.52l-4.32-15v-0.36h0.32l15.24,3.44
				C249.549,174.429,251.161,174.18,252.454,173.311z"/>
			<path d="M253.774,58.631l6.16,5.76l0.28,8v0.24c-0.027,0.306-0.027,0.614,0,0.92c0.043,0.377,0.11,0.751,0.2,1.12v0.36
				c0.221,0.715,0.53,1.401,0.92,2.04c2.438,4.177,7.761,5.65,12,3.32l0.44-0.24l7.52-4.56l8,2.28c0.664,0.199,1.348,0.32,2.04,0.36
				c0.704,0.084,1.416,0.084,2.12,0h0.32c4.825-0.948,7.984-5.607,7.08-10.44l-1.88-8.32l4.52-6.72l0.28-0.36l0.32-0.56
				c0.254-0.461,0.468-0.943,0.64-1.44c0.289-0.779,0.469-1.595,0.532-2.424c0.377-4.912-3.3-9.199-8.212-9.576l-8.44-0.76
				l-5.24-6.68l-0.12-0.32c-0.325-0.418-0.687-0.806-1.08-1.16l-0.48-0.44c-0.615-0.47-1.287-0.86-2-1.16c0,0,0,0-0.001,0
				c-4.551-1.944-9.816,0.17-11.759,4.72l-3.36,8l-7.48,2.72c-0.775,0.234-1.514,0.57-2.2,1c-0.731,0.461-1.392,1.026-1.961,1.677
				C249.674,49.711,250.05,55.371,253.774,58.631z M270.334,49.831c1.372-0.492,2.475-1.536,3.04-2.88l3.28-7.64l5.12,6.52
				c0.914,1.108,2.246,1.789,3.68,1.88l8.28,0.76l-4.64,6.92c-0.786,1.175-1.061,2.619-0.76,4l1.84,8l-8-2.28
				c-1.5-0.433-3.116-0.168-4.4,0.72l-7,4l-0.28-8.24c-0.049-1.45-0.702-2.813-1.8-3.76l-6.12-5.16L270.334,49.831z"/>
			<path d="M62.254,281.19c-0.686-0.43-1.425-0.766-2.2-1l-7.48-2.72l-3.36-8c-1.999-4.315-7.021-6.317-11.44-4.56
				c-0.713,0.3-1.385,0.69-2,1.16l-0.48,0.44c-0.393,0.354-0.755,0.742-1.08,1.16h-0.2l-5.24,6.68l-8.44,0.76
				c-4.912,0.377-8.589,4.664-8.212,9.576c0.064,0.829,0.243,1.645,0.532,2.424c0.173,0.497,0.387,0.979,0.64,1.44l0.32,0.56
				l0.28,0.36l4.52,6.72l-1.88,8.32c-1.069,4.814,1.952,9.587,6.76,10.68h0.32c0.704,0.085,1.416,0.085,2.12,0
				c0.692-0.04,1.376-0.161,2.04-0.36l8-2.28l7.32,4.36l0.44,0.24c4.239,2.33,9.562,0.857,12-3.32c0.39-0.639,0.699-1.325,0.92-2.04
				v-0.36c0.09-0.369,0.157-0.743,0.2-1.12c0.026-0.306,0.026-0.614,0-0.92v-0.24l0.28-8l6.44-5.64
				c3.721-3.296,4.065-8.984,0.769-12.705C63.591,282.183,62.955,281.639,62.254,281.19z M48.614,294.871
				c-1.098,0.947-1.751,2.31-1.8,3.76l-0.28,8.28l-6.84-4c-1.284-0.888-2.9-1.153-4.4-0.72l-8,2.28l1.84-8
				c0.301-1.381,0.026-2.825-0.76-4l-4.64-6.92l8.28-0.76c1.464-0.201,2.773-1.016,3.6-2.24l5.12-6.52l3.28,7.64
				c0.565,1.344,1.668,2.388,3.04,2.88l7.8,2.84L48.614,294.871z"/>
		</g>
	</g>
</g>
<g>
</g>
<g>
</g>
<g>
</g>
<g>
</g>
<g>
</g>
<g>
</g>
<g>
</g>
<g>
</g>
<g>
</g>
<g>
</g>
<g>
</g>
<g>
</g>
<g>
</g>
<g>
</g>
<g>
</g>
</svg>
